<?xml version="1.0" encoding="UTF-8" standalone="no"?>
<svg
   xmlns:dc="http://purl.org/dc/elements/1.1/"
   xmlns:cc="http://creativecommons.org/ns#"
   xmlns:rdf="http://www.w3.org/1999/02/22-rdf-syntax-ns#"
   xmlns:svg="http://www.w3.org/2000/svg"
   xmlns="http://www.w3.org/2000/svg"
   xmlns:sodipodi="http://sodipodi.sourceforge.net/DTD/sodipodi-0.dtd"
   xmlns:inkscape="http://www.inkscape.org/namespaces/inkscape"
   width="24.0px"
   height="24.0px"
   viewBox="0 0 24.0 24.0"
   version="1.1"
   id="SVGRoot"
   sodipodi:docname="Somme gains Bode.svg"
   inkscape:version="1.0.1 (3bc2e813f5, 2020-09-07)">
  <defs
     id="defs1469" />
  <sodipodi:namedview
     id="base"
     pagecolor="#ffffff"
     bordercolor="#666666"
     borderopacity="1.0"
     inkscape:pageopacity="0.0"
     inkscape:pageshadow="2"
     inkscape:zoom="63.356768"
     inkscape:cx="15.947723"
     inkscape:cy="5.6917309"
     inkscape:document-units="px"
     inkscape:current-layer="layer1"
     inkscape:document-rotation="0"
     showgrid="true"
     inkscape:window-width="1920"
     inkscape:window-height="1011"
     inkscape:window-x="0"
     inkscape:window-y="0"
     inkscape:window-maximized="1">
    <inkscape:grid
       type="xygrid"
       id="grid2039" />
    <inkscape:grid
       type="xygrid"
       id="grid2058" />
  </sodipodi:namedview>
  <metadata
     id="metadata1472">
    <rdf:RDF>
      <cc:Work
         rdf:about="">
        <dc:format>image/svg+xml</dc:format>
        <dc:type
           rdf:resource="http://purl.org/dc/dcmitype/StillImage" />
        <dc:title />
      </cc:Work>
    </rdf:RDF>
  </metadata>
  <g
     inkscape:label="Calque 1"
     inkscape:groupmode="layer"
     id="layer1">
    <path
       id="rect838"
       style="fill:#000000;fill-rule:evenodd;stroke-width:2"
       d="M 2,2 H 8 V 3 H 4 L 7,6 4,9 h 4 v 1 H 2 V 9 L 5,6 2,3 Z"
       sodipodi:nodetypes="ccccccccccccc" />
    <rect
       style="opacity:1;vector-effect:none;fill:#000000;fill-opacity:1;fill-rule:evenodd;stroke:none;stroke-width:14.257;stroke-linecap:butt;stroke-linejoin:miter;stroke-miterlimit:4;stroke-dasharray:none;stroke-dashoffset:0;stroke-opacity:0"
       id="rect835"
       width="14"
       height="2"
       x="0"
       y="17" />
    <circle
       style="fill:#000000;fill-rule:evenodd;stroke-width:2"
       id="path837"
       cx="13"
       cy="18"
       r="4" />
    <path
       id="rect837"
       style="fill:#000000;fill-rule:evenodd;stroke-width:2.10035"
       transform="rotate(30)"
       d="m 20.686533,-6.169873 2.232051,-0.1339746 -0.06218,13.8923049 -2.23205,0.1339746 z"
       sodipodi:nodetypes="ccccc" />
    <g
       aria-label="G"
       id="text846"
       style="font-style:normal;font-weight:normal;font-size:12px;line-height:1.25;font-family:sans-serif;letter-spacing:0px;word-spacing:0px;fill:#000000;fill-opacity:1;stroke:none">
      <path
         d="m 13,2 c 0,0 -3,0 -3,3 0,3 0,5 3,5 2,0 3,0 3,-2 V 6 h -3 v 1 h 2 v 1 c 0,1 -1,1 -2,1 -1,0 -2,0 -2,-4 0,-1 1,-2 2,-2 2,0 2,1 2,1 h 1 c 0,0 0,-2 -3,-2 z"
         style="font-size:12px"
         id="path848"
         sodipodi:nodetypes="sssccccccsssccs" />
    </g>
  </g>
</svg>
