<?xml version="1.0" encoding="UTF-8" standalone="no"?>
<svg
   xmlns:dc="http://purl.org/dc/elements/1.1/"
   xmlns:cc="http://creativecommons.org/ns#"
   xmlns:rdf="http://www.w3.org/1999/02/22-rdf-syntax-ns#"
   xmlns:svg="http://www.w3.org/2000/svg"
   xmlns="http://www.w3.org/2000/svg"
   xmlns:sodipodi="http://sodipodi.sourceforge.net/DTD/sodipodi-0.dtd"
   xmlns:inkscape="http://www.inkscape.org/namespaces/inkscape"
   width="24.0px"
   height="24.0px"
   viewBox="0 0 24.0 24.0"
   version="1.1"
   id="SVGRoot"
   sodipodi:docname="Function.svg"
   inkscape:version="1.0.1 (3bc2e813f5, 2021-09-07)">
  <defs
     id="defs833" />
  <sodipodi:namedview
     id="base"
     pagecolor="#ffffff"
     bordercolor="#666666"
     borderopacity="1.0"
     inkscape:pageopacity="0.0"
     inkscape:pageshadow="2"
     inkscape:zoom="31.678384"
     inkscape:cx="15.268708"
     inkscape:cy="12.238724"
     inkscape:document-units="px"
     inkscape:current-layer="layer1"
     inkscape:document-rotation="0"
     showgrid="true"
     inkscape:window-width="1920"
     inkscape:window-height="1011"
     inkscape:window-x="0"
     inkscape:window-y="0"
     inkscape:window-maximized="1">
    <inkscape:grid
       type="xygrid"
       id="grid1403" />
  </sodipodi:namedview>
  <metadata
     id="metadata10">
    <rdf:RDF>
      <cc:Work
         rdf:about="">
        <dc:format>image/svg+xml</dc:format>
        <dc:type
           rdf:resource="http://purl.org/dc/dcmitype/StillImage" />
        <dc:title />
        <dc:date>2021</dc:date>
        <dc:creator>
          <cc:Agent>
            <dc:title>Ad5001</dc:title>
          </cc:Agent>
        </dc:creator>
        <dc:rights>
          <cc:Agent>
            <dc:title>(C) Ad5001 2021 - Licensed under CC4.0-BY-NC-SA</dc:title>
          </cc:Agent>
        </dc:rights>
        <cc:license
           rdf:resource="http://creativecommons.org/licenses/by-nc-nd/4.0/" />
      </cc:Work>
      <cc:License
         rdf:about="http://creativecommons.org/licenses/by-nc-nd/4.0/">
        <cc:permits
           rdf:resource="http://creativecommons.org/ns#Reproduction" />
        <cc:permits
           rdf:resource="http://creativecommons.org/ns#Distribution" />
        <cc:requires
           rdf:resource="http://creativecommons.org/ns#Notice" />
        <cc:requires
           rdf:resource="http://creativecommons.org/ns#Attribution" />
        <cc:prohibits
           rdf:resource="http://creativecommons.org/ns#CommercialUse" />
      </cc:License>
    </rdf:RDF>
  </metadata>
  <g
     inkscape:label="Calque 1"
     inkscape:groupmode="layer"
     id="layer1">
    <path
       id="rect1415"
       style="fill:#000000;fill-rule:evenodd"
       d="M 2,9 C 2,5 6,5 6,5 H 7 V 7 H 6 C 6,7 4,7 4,9 v 2 h 2 v 2 H 4 v 5 H 2 V 13 H 0 v -2 h 2 z"
       sodipodi:nodetypes="ccccccccccccccccc" />
    <path
       id="rect839"
       style="fill:#000000;fill-rule:evenodd;stroke-width:2"
       d="m 12,3 v 2 c 0,0 -2,0 -2,7 0,7 2,7 2,7 v 2 C 8,21 8,12 8,12 8,12 8,3 12,3 Z"
       sodipodi:nodetypes="ccccccc" />
    <path
       id="rect857"
       style="fill:#000000;fill-rule:evenodd;stroke-width:2"
       d="m 12,10 h 2 l 6,8 h -2 z"
       sodipodi:nodetypes="ccccc" />
    <path
       id="rect857-7"
       style="fill:#000000;fill-rule:evenodd;stroke-width:2"
       d="m 12,18 h 2 l 6,-8 h -2 z"
       sodipodi:nodetypes="ccccc" />
    <path
       id="rect839-3"
       style="fill:#000000;fill-rule:evenodd;stroke-width:2"
       d="m 20,3 v 2 c 0,0 2,0 2,7 0,7 -2,7 -2,7 v 2 c 4,0 4,-9 4,-9 0,0 0,-9 -4,-9 z"
       sodipodi:nodetypes="ccccccc" />
  </g>
</svg>
