<?xml version="1.0" encoding="UTF-8" standalone="no"?>
<svg
   xmlns:dc="http://purl.org/dc/elements/1.1/"
   xmlns:cc="http://creativecommons.org/ns#"
   xmlns:rdf="http://www.w3.org/1999/02/22-rdf-syntax-ns#"
   xmlns:svg="http://www.w3.org/2000/svg"
   xmlns="http://www.w3.org/2000/svg"
   xmlns:sodipodi="http://sodipodi.sourceforge.net/DTD/sodipodi-0.dtd"
   xmlns:inkscape="http://www.inkscape.org/namespaces/inkscape"
   width="24.0px"
   height="24.0px"
   viewBox="0 0 24.0 24.0"
   version="1.1"
   id="SVGRoot"
   sodipodi:docname="xzoom.svg"
   inkscape:version="1.0.1 (3bc2e813f5, 2020-09-07)">
  <defs
     id="defs836" />
  <sodipodi:namedview
     id="base"
     pagecolor="#ffffff"
     bordercolor="#666666"
     borderopacity="1.0"
     inkscape:pageopacity="0.0"
     inkscape:pageshadow="2"
     inkscape:zoom="31.678384"
     inkscape:cx="3.2863506"
     inkscape:cy="11.157143"
     inkscape:document-units="px"
     inkscape:current-layer="layer1"
     inkscape:document-rotation="0"
     showgrid="true"
     inkscape:window-width="1920"
     inkscape:window-height="1011"
     inkscape:window-x="0"
     inkscape:window-y="0"
     inkscape:window-maximized="1">
    <inkscape:grid
       type="xygrid"
       id="grid1406" />
  </sodipodi:namedview>
  <metadata
     id="metadata839">
    <rdf:RDF>
      <cc:Work
         rdf:about="">
        <dc:format>image/svg+xml</dc:format>
        <dc:type
           rdf:resource="http://purl.org/dc/dcmitype/StillImage" />
        <dc:title />
      </cc:Work>
    </rdf:RDF>
  </metadata>
  <g
     inkscape:label="Calque 1"
     inkscape:groupmode="layer"
     id="layer1">
    <path
       id="rect1418"
       style="fill:#000000;fill-rule:evenodd;stroke-width:4.24264"
       d="m 17,13 4,4 -4,4 V 18 H 3 v -2 h 14 z"
       sodipodi:nodetypes="cccccccc" />
    <path
       id="path834"
       style="fill:#000000;fill-rule:evenodd;stroke-width:2"
       d="M 6.949219,5 A 3,3 0 0 0 4,8 3,3 0 0 0 7,11 3,3 0 0 0 10,8 3,3 0 0 0 7,5 3,3 0 0 0 6.94922,5 Z m 0.002,1 A 2,2 0 0 1 7,6 2,2 0 0 1 9,8 2,2 0 0 1 7,10 2,2 0 0 1 5,8 2,2 0 0 1 6.951172,6 Z" />
    <path
       id="rect841"
       style="fill:#000000;fill-rule:evenodd;stroke-width:2"
       d="m 8,10 1,-1 4,4 -1,1 z"
       sodipodi:nodetypes="ccccc" />
  </g>
</svg>
