<svg xmlns="http://www.w3.org/2000/svg" width="24" height="24"><path d="M4 21.832c4.587.38 2.944-4.493 7.188-4.538l1.838 1.534c.458 5.538-6.315 6.773-9.026 3.004zm14.065-7.115c1.427-2.239 5.847-9.749 5.847-9.749.352-.623-.43-1.273-.976-.813 0 0-6.572 5.714-8.511 7.525-1.532 1.432-1.539 2.086-2.035 4.447l1.68 1.4c2.227-.915 2.868-1.039 3.995-2.81zM6.066 18.593c.666-1.134 1.748-2.977 4.447-3.262.434-2.087.607-3.3 2.547-5.112 1.373-1.282 4.938-4.409 7.021-6.229-1-2.208-4.141-4.023-8.178-3.99C5.279.055-.053 5.465 0 12.092a11.956 11.956 0 0 0 2.82 7.635c1.618.429 2.376.348 3.246-1.134zm6.952-15.835a2.006 2.006 0 0 1 2.016 1.983 2.005 2.005 0 0 1-1.986 2.016 1.997 1.997 0 0 1-2.014-1.984 1.994 1.994 0 0 1 1.984-2.015zM7.021 4.759a1.993 1.993 0 0 1 2.012 1.983 1.998 1.998 0 1 1-3.996.028 1.994 1.994 0 0 1 1.984-2.011zm-2.003 5.998a2 2 0 1 1 .03 4 1.995 1.995 0 0 1-2.011-1.985 1.998 1.998 0 0 1 1.981-2.015zm10.031 8.532c.021 2.239-.882 3.718-1.682 4.587l-.046.044c5.255-.591 9.062-4.304 6.266-7.889-1.373 2.047-2.534 2.442-4.538 3.258z" style="fill:#000"/></svg>