<?xml version="1.0" encoding="UTF-8" standalone="no"?>
<svg
   xmlns:dc="http://purl.org/dc/elements/1.1/"
   xmlns:cc="http://creativecommons.org/ns#"
   xmlns:rdf="http://www.w3.org/1999/02/22-rdf-syntax-ns#"
   xmlns:svg="http://www.w3.org/2000/svg"
   xmlns="http://www.w3.org/2000/svg"
   xmlns:sodipodi="http://sodipodi.sourceforge.net/DTD/sodipodi-0.dtd"
   xmlns:inkscape="http://www.inkscape.org/namespaces/inkscape"
   width="24"
   height="24"
   version="1.1"
   viewBox="0 0 24 24"
   id="svg4"
   sodipodi:docname="appearance.svg"
   inkscape:version="1.0.1 (3bc2e813f5, 2021-09-07)">
  <metadata
     id="metadata10">
    <rdf:RDF>
      <cc:Work
         rdf:about="">
        <dc:format>image/svg+xml</dc:format>
        <dc:type
           rdf:resource="http://purl.org/dc/dcmitype/StillImage" />
      </cc:Work>
    </rdf:RDF>
  </metadata>
  <defs
     id="defs8" />
  <sodipodi:namedview
     pagecolor="#ffffff"
     bordercolor="#666666"
     borderopacity="1"
     objecttolerance="10"
     gridtolerance="10"
     guidetolerance="10"
     inkscape:pageopacity="0"
     inkscape:pageshadow="2"
     inkscape:window-width="748"
     inkscape:window-height="480"
     id="namedview6"
     showgrid="false"
     inkscape:zoom="14.895833"
     inkscape:cx="11.573135"
     inkscape:cy="8.9383247"
     inkscape:window-x="0"
     inkscape:window-y="0"
     inkscape:window-maximized="0"
     inkscape:current-layer="svg4" />
  <path
     d="M4 21.832c4.587.38 2.944-4.493 7.188-4.538l1.838 1.534c.458 5.538-6.315 6.773-9.026 3.004zm14.065-7.115c1.427-2.239 5.847-9.749 5.847-9.749.352-.623-.43-1.273-.976-.813 0 0-6.572 5.714-8.511 7.525-1.532 1.432-1.539 2.086-2.035 4.447l1.68 1.4c2.227-.915 2.868-1.039 3.995-2.81zm-11.999 3.876c.666-1.134 1.748-2.977 4.447-3.262.434-2.087.607-3.3 2.547-5.112 1.373-1.282 4.938-4.409 7.021-6.229-1-2.208-4.141-4.023-8.178-3.99-6.624.055-11.956 5.465-11.903 12.092.023 2.911 1.081 5.571 2.82 7.635 1.618.429 2.376.348 3.246-1.134zm6.952-15.835c1.102-.006 2.005.881 2.016 1.983.004 1.103-.882 2.009-1.986 2.016-1.105.009-2.008-.88-2.014-1.984-.013-1.106.876-2.006 1.984-2.015zm-5.997 2.001c1.102-.01 2.008.877 2.012 1.983.012 1.106-.88 2.005-1.98 2.016-1.106.007-2.009-.881-2.016-1.988-.009-1.103.877-2.004 1.984-2.011zm-2.003 5.998c1.106-.007 2.01.882 2.016 1.985.01 1.104-.88 2.008-1.986 2.015-1.105.008-2.005-.88-2.011-1.985-.011-1.105.879-2.004 1.981-2.015zm10.031 8.532c.021 2.239-.882 3.718-1.682 4.587l-.046.044c5.255-.591 9.062-4.304 6.266-7.889-1.373 2.047-2.534 2.442-4.538 3.258z"
     id="path2"
     style="fill:#000000" />
</svg>
