<?xml version="1.0" encoding="UTF-8" standalone="no"?>
<svg
   xmlns:dc="http://purl.org/dc/elements/1.1/"
   xmlns:cc="http://creativecommons.org/ns#"
   xmlns:rdf="http://www.w3.org/1999/02/22-rdf-syntax-ns#"
   xmlns:svg="http://www.w3.org/2000/svg"
   xmlns="http://www.w3.org/2000/svg"
   xmlns:sodipodi="http://sodipodi.sourceforge.net/DTD/sodipodi-0.dtd"
   xmlns:inkscape="http://www.inkscape.org/namespaces/inkscape"
   width="24.0px"
   height="24.0px"
   viewBox="0 0 24.0 24.0"
   version="1.1"
   id="SVGRoot"
   sodipodi:docname="textsize.svg"
   inkscape:version="1.0.1 (3bc2e813f5, 2021-09-07)">
  <defs
     id="defs833" />
  <sodipodi:namedview
     id="base"
     pagecolor="#ffffff"
     bordercolor="#666666"
     borderopacity="1.0"
     inkscape:pageopacity="0.0"
     inkscape:pageshadow="2"
     inkscape:zoom="8"
     inkscape:cx="-23.020311"
     inkscape:cy="14.000331"
     inkscape:document-units="px"
     inkscape:current-layer="layer1"
     inkscape:document-rotation="0"
     showgrid="true"
     inkscape:window-width="1920"
     inkscape:window-height="1011"
     inkscape:window-x="0"
     inkscape:window-y="0"
     inkscape:window-maximized="1">
    <inkscape:grid
       type="xygrid"
       id="grid1403" />
  </sodipodi:namedview>
  <metadata
     id="metadata10">
    <rdf:RDF>
      <cc:Work
         rdf:about="">
        <dc:format>image/svg+xml</dc:format>
        <dc:type
           rdf:resource="http://purl.org/dc/dcmitype/StillImage" />
        <dc:title />
        <dc:date>2021</dc:date>
        <dc:creator>
          <cc:Agent>
            <dc:title>Ad5001</dc:title>
          </cc:Agent>
        </dc:creator>
        <dc:rights>
          <cc:Agent>
            <dc:title>(C) Ad5001 2021 - Licensed under CC4.0-BY-NC-SA</dc:title>
          </cc:Agent>
        </dc:rights>
        <cc:license
           rdf:resource="http://creativecommons.org/licenses/by-nc-nd/4.0/" />
      </cc:Work>
      <cc:License
         rdf:about="http://creativecommons.org/licenses/by-nc-nd/4.0/">
        <cc:permits
           rdf:resource="http://creativecommons.org/ns#Reproduction" />
        <cc:permits
           rdf:resource="http://creativecommons.org/ns#Distribution" />
        <cc:requires
           rdf:resource="http://creativecommons.org/ns#Notice" />
        <cc:requires
           rdf:resource="http://creativecommons.org/ns#Attribution" />
        <cc:prohibits
           rdf:resource="http://creativecommons.org/ns#CommercialUse" />
      </cc:License>
    </rdf:RDF>
  </metadata>
  <g
     inkscape:label="Calque 1"
     inkscape:groupmode="layer"
     id="layer1">
    <path
       id="rect1021-2"
       style="fill:#000000;fill-opacity:1;fill-rule:evenodd;stroke-width:2"
       d="M 15 7.5214844 C 13.703216 8.0990522 12.071184 9.3220377 11 12 C 8.999999 17 10.740903 17.97437 13 18 C 13.628595 18.007132 14.271011 17.836312 15 17.435547 L 15 15.429688 C 13.606222 16.332721 12 17.136051 12 16 C 12 16 12 15 13 12 C 13.53565 10.393051 14.351576 9.6589924 15 9.3125 L 15 7.5214844 z " />
    <path
       id="rect1021-2-2"
       style="fill:#000000;fill-opacity:1;fill-rule:evenodd;stroke-width:2"
       d="m 6,18.000225 c -2,0 -2,-3 -2,-3 l 1,-1 c 0,0 1,2 2,2 0,0 2,0 3,-3 1,-3 1,-4 1,-4 0,-2 -5,2 -5,2 l -1,-1 c 2.247519,-2.247519 3.646932,-3.015351 5,-3 2.259097,0.02563 4,1 1.999999,6 -1.999999,5 -5.999999,5 -5.999999,5 z"
       sodipodi:nodetypes="ccccccccscc" />
    <path
       id="rect834"
       style="fill:#000000;fill-opacity:1;fill-rule:evenodd;stroke-width:2.44949"
       d="m 17,14 h 2 v 6 h 3 l -4,4 -4,-4 h 3 z"
       sodipodi:nodetypes="cccccccc" />
    <path
       id="rect834-3"
       style="fill:#000000;fill-opacity:1;fill-rule:evenodd;stroke-width:2.44949"
       d="m 17,12 h 2 V 6 h 3 L 18,2 14,6 h 3 z"
       sodipodi:nodetypes="cccccccc" />
  </g>
</svg>
